<svg id="Layer_1" data-name="Layer 1" xmlns="http://www.w3.org/2000/svg" viewBox="0 0 1000 239.49"><defs><style>.cls-1{fill:#1d1d1b;}.cls-2{fill:none;}</style></defs><path class="cls-1" d="M225.34,230.55q-7.74,0-7.75-7.75V69.05q0-8,7.75-8,7.5,0,7.5,8v16.5A42.39,42.39,0,0,1,249.47,67.3q11.11-6.75,25.87-6.75,16.26,0,28.38,7.75a51.09,51.09,0,0,1,18.75,21.75q6.61,14,6.62,33.25t-6.62,33.37a50.06,50.06,0,0,1-18.75,21.75q-12.14,7.64-28.38,7.63-14.74,0-25.87-6.5a40.81,40.81,0,0,1-16.63-18V222.8Q232.84,230.54,225.34,230.55Zm47.75-57.25q18.51,0,29.5-13.13t11-36.87q0-23.74-11-36.75t-29.5-13q-18.49,0-29.5,13t-11,36.75q0,23.76,11,36.87T273.09,173.3Z"/><path class="cls-1" d="M369.09,185.55q-7.74,0-7.75-7.75V69.05q0-8,7.75-8,7.26,0,7.25,8V84.8a39.58,39.58,0,0,1,16.38-18,51.47,51.47,0,0,1,25.12-6.5,7.1,7.1,0,0,1,5,1.25,5.54,5.54,0,0,1,2,4.75q.26,7-7.25,7.75l-3.5.25q-17.74,1.5-27.5,11.62t-9.75,27.13V177.8Q376.84,185.56,369.09,185.55Z"/><path class="cls-1" d="M498.09,186.05q-28,0-44.12-16.63T437.84,123.8q0-18.75,7.25-33a54.89,54.89,0,0,1,20.13-22.25q12.87-8,29.62-8,24.26,0,37.75,15.75t13.5,43.25q0,7-7,7H452.84q.75,22.5,12.38,34.62t32.37,12.13a66.77,66.77,0,0,0,17.88-2.38,49.82,49.82,0,0,0,16.87-8.62q4.5-3,7.75-1.38a6.27,6.27,0,0,1,3.63,5.25q.38,3.63-3.88,6.63a55.1,55.1,0,0,1-19.37,9.87A78.45,78.45,0,0,1,498.09,186.05Zm-3-113.25q-19,0-29.62,11.87T453.09,115.3h79.25q-.5-20-10-31.25T495.09,72.8Z"/><path class="cls-1" d="M584.84,185.55q-7.76,0-7.75-7.75V69.05q0-8,7.75-8,7.24,0,7.25,8v15.5a40.12,40.12,0,0,1,17.25-18,52.27,52.27,0,0,1,25-6q43.24,0,43.25,47V177.8q0,7.75-7.5,7.75-7.76,0-7.75-7.75v-69q0-18-7.25-26.5t-23-8.5q-18,0-28.87,11.12T592.34,114.8v63Q592.34,185.56,584.84,185.55Z"/><path class="cls-1" d="M763.34,186.05q-16.5,0-28.5-7.63a50.25,50.25,0,0,1-18.62-21.75q-6.63-14.11-6.63-33.37,0-28.74,14.5-45.75t39.25-17A49.22,49.22,0,0,1,789,67.17,41.69,41.69,0,0,1,805.59,85.3V14.05q0-7.74,7.5-7.75,7.74,0,7.75,7.75V177.8q0,7.75-7.5,7.75-7.76,0-7.75-7.75V161.3A41.56,41.56,0,0,1,789,179.42,49.13,49.13,0,0,1,763.34,186.05Zm2-12.75q18.49,0,29.5-13.13t11-36.87q0-23.74-11-36.75t-29.5-13q-18.51,0-29.37,13T725.09,123.3q0,23.76,10.88,36.87T765.34,173.3Z"/><path class="cls-1" d="M909.09,186.05q-17,0-29.5-7.63a50.71,50.71,0,0,1-19.37-21.75q-6.88-14.11-6.88-33.37,0-19,6.88-33.13A51.61,51.61,0,0,1,879.59,68.3q12.49-7.74,29.5-7.75,17.25,0,29.75,7.75a51.76,51.76,0,0,1,19.38,21.87q6.87,14.13,6.87,33.13,0,19.26-6.87,33.37a50.85,50.85,0,0,1-19.38,21.75Q926.33,186.06,909.09,186.05Zm0-12.75q18.49,0,29.5-13.13t11-36.87q0-23.74-11-36.75t-29.5-13q-18.51,0-29.37,13T868.84,123.3q0,23.76,10.88,36.87T909.09,173.3Z"/><polyline class="cls-2" points="107.6 26.8 107.1 26.8 65.85 123.8"/><path d="M107,137V123H65.85L107.5,26.8V6.3c-3.82,0-7.4,2.34-9.4,7L41.39,143.67,30.14,184.93a9.79,9.79,0,0,0,3.56.61l21.36-36.71,5-11.78"/><path d="M107,137V123h41.85L107.5,26.8V6.3c3.52,0,7.1,2.34,9.1,7l56.71,130.37,11.24,41.26a9.7,9.7,0,0,1-3.55.61l-21.36-36.71-5-11.78"/></svg>